<svg width="24" height="24" viewBox="0 0 24 24" fill="none" xmlns="http://www.w3.org/2000/svg">
  <path d="M12 2L4.5 9C4.5 9 3 11.5 3 15C3 18.5 5.5 21 9 21C11.5 21 13.5 19.5 15 17.5C16.5 19.5 18.5 21 21 21C24.5 21 27 18.5 27 15C27 11.5 25.5 9 25.5 9L18 2" stroke="#1A5C38" stroke-width="2" stroke-linecap="round" stroke-linejoin="round"/>
  <path d="M12 2C12 2 13.5 4.5 13.5 8C13.5 11.5 12 14 12 14" stroke="#4CAF50" stroke-width="2" stroke-linecap="round" stroke-linejoin="round"/>
  <path d="M12 22V14" stroke="#1A5C38" stroke-width="2" stroke-linecap="round"/>
</svg>